<?xml version="1.0" encoding="UTF-8"?>
<svg xmlns="http://www.w3.org/2000/svg" 
     width="1400" height="160"
     viewBox="310 585 1380 165">
  <g transform="translate(0,1365) scale(0.1,-0.1)" fill="#000000" stroke="none">
    <path d="M8860 7674 c-139 -12 -299 -76 -405 -162 -119 -95 -207 -236 -247
-393 -70 -278 65 -605 317 -769 230 -149 572 -148 809 2 227 145 368 425 336
667 -28 211 -114 370 -263 487 -161 126 -352 185 -547 168z m245 -152 c202
-64 337 -198 407 -404 16 -48 22 -87 22 -163 0 -169 -50 -291 -170 -412 -85
-88 -188 -140 -329 -168 -85 -17 -96 -17 -186 -2 -271 46 -462 233 -516 504
-15 78 -15 91 0 176 40 229 189 403 398 466 35 11 78 22 94 25 60 9 220 -3
280 -22z"/>
    <path d="M10300 7670 c-87 -11 -165 -42 -229 -89 -102 -77 -151 -167 -151
-282 0 -65 4 -85 31 -137 55 -112 141 -165 364 -228 253 -71 335 -106 397
-171 42 -44 58 -79 58 -131 0 -128 -86 -215 -251 -256 -81 -20 -104 -20 -213
-1 -104 18 -208 65 -296 134 l-64 49 -38 -46 c-21 -26 -38 -50 -38 -55 0 -24
127 -113 224 -157 138 -63 278 -81 425 -56 172 30 291 110 356 241 26 52 30
71 30 140 0 67 -5 90 -28 140 -61 132 -177 205 -432 275 -230 63 -316 104
-365 172 -42 58 -43 134 0 201 56 88 160 131 315 130 121 -1 189 -21 295 -86
54 -33 79 -43 91 -37 27 15 69 78 63 94 -11 30 -179 116 -272 141 -77 19 -189
26 -272 15z"/>
    <path d="M11775 7670 c-239 -27 -464 -188 -566 -405 -130 -280 -75 -586 150
-818 219 -228 592 -275 873 -110 82 48 178 130 178 152 0 10 -18 35 -40 55
l-39 35 -50 -48 c-27 -26 -84 -66 -127 -89 -392 -203 -837 47 -881 495 -15
152 69 351 195 464 131 118 327 170 503 134 113 -23 172 -49 251 -112 37 -29
73 -53 80 -53 22 0 91 77 85 93 -10 25 -123 106 -199 142 -127 60 -266 82
-413 65z"/>
    <path d="M13233 7648 c-31 -34 -227 -444 -445 -932 -27 -60 -85 -183 -130
-273 -55 -111 -78 -167 -71 -174 6 -6 36 -9 68 -7 l58 3 30 55 c29 54 240 504
359 765 98 216 171 365 178 365 4 0 26 -42 50 -92 23 -51 69 -149 100 -218 63
-135 205 -446 275 -600 23 -52 61 -135 84 -185 l40 -90 76 -3 c90 -3 90 -2 39
95 -19 37 -141 298 -270 578 -130 281 -254 550 -277 598 -59 128 -116 167
-164 115z"/>
    <path d="M4563 7653 c-45 -4 -53 -7 -61 -31 -6 -15 -54 -121 -107 -237 -53
-115 -123 -268 -155 -340 -31 -71 -100 -222 -152 -335 -52 -113 -101 -220
-108 -239 l-14 -35 -54 115 c-29 63 -153 328 -274 589 -121 261 -227 483 -235
493 -21 22 -143 25 -143 3 0 -7 34 -85 76 -172 42 -87 128 -271 191 -409 312
-678 363 -784 386 -803 10 -8 27 -10 53 -4 34 7 44 16 75 67 19 33 77 152 128
265 132 288 149 326 186 405 78 167 107 230 141 303 167 357 173 374 137 370
-10 -1 -41 -3 -70 -5z"/>
    <path d="M4952 6960 l3 -695 60 0 60 0 3 692 2 691 -65 4 -65 3 2 -695z"/>
    <path d="M5938 7653 l-598 -3 0 -59 c0 -58 0 -59 33 -65 17 -4 140 -6 272 -6
l240 1 0 -93 c0 -51 1 -335 3 -631 l2 -538 63 3 62 3 3 630 2 630 273 0 272 0
3 34 c5 48 -7 101 -21 99 -7 -2 -281 -4 -609 -5z"/>
    <path d="M6822 6958 l3 -693 60 0 60 0 3 630 2 630 288 -2 c316 -2 345 -4 405
-34 96 -48 155 -137 164 -247 9 -122 -52 -228 -165 -283 -45 -23 -58 -24 -289
-27 l-243 -3 0 -64 c0 -44 4 -63 13 -62 6 0 82 -1 167 -2 l155 -2 178 -269
178 -270 74 0 c41 0 77 4 80 10 3 5 -11 33 -33 62 -32 44 -105 151 -299 437
-30 44 -29 48 10 55 102 20 213 108 265 212 112 224 10 487 -227 586 -55 22
-65 23 -454 26 l-397 3 2 -693z"/>
    <path d="M14242 6958 l3 -693 63 -3 62 -3 0 631 0 631 323 -3 322 -3 52 -27
c178 -94 227 -308 107 -466 -31 -40 -82 -73 -148 -95 -40 -14 -91 -17 -268
-17 l-218 0 0 -65 0 -65 224 0 c194 0 232 3 287 20 216 66 351 272 318 483
-24 152 -134 282 -287 340 -54 20 -77 21 -450 25 l-392 3 2 -693z"/>
    <path d="M15650 6955 l0 -695 520 0 521 0 -3 66 -3 66 -452 -2 -453 -1 0 256
0 255 389 0 c345 0 390 2 395 16 8 20 8 62 0 92 l-6 22 -389 0 -389 0 2 245 3
246 428 -1 427 0 0 65 0 65 -495 0 -495 0 0 -695z"/>
  </g>
</svg>